<svg width="22" height="22" viewBox="0 0 22 22" fill="none" xmlns="http://www.w3.org/2000/svg">
<path d="M20.0748 6.94449H18.5976L14.8668 1.28662C14.7184 1.06188 14.4876 0.905892 14.2254 0.852982C13.9631 0.800073 13.6907 0.854573 13.4682 1.00449C13.2457 1.15441 13.0913 1.38748 13.0389 1.65241C12.9866 1.91734 13.0405 2.19243 13.1889 2.41718L16.1746 6.94449H5.82507L8.81377 2.41718C8.96219 2.19243 9.01615 1.91734 8.96377 1.65241C8.91139 1.38748 8.75696 1.15441 8.53446 1.00449C8.31196 0.854573 8.03962 0.800073 7.77734 0.852982C7.51506 0.905892 7.28433 1.06188 7.1359 1.28662L3.40205 6.94449H1.92484C1.65741 6.94449 1.40094 7.0518 1.21184 7.24281C1.02274 7.43382 0.916504 7.69288 0.916504 7.96301C0.916504 8.23314 1.02274 8.4922 1.21184 8.68321C1.40094 8.87422 1.65741 8.98153 1.92484 8.98153H2.93317V17.1297C2.93317 17.6699 3.14564 18.1881 3.52384 18.5701C3.90204 18.9521 4.41498 19.1667 4.94984 19.1667H17.0498C17.5847 19.1667 18.0976 18.9521 18.4758 18.5701C18.854 18.1881 19.0665 17.6699 19.0665 17.1297V8.98153H20.0748C20.3423 8.98153 20.5987 8.87422 20.7878 8.68321C20.9769 8.4922 21.0832 8.23314 21.0832 7.96301C21.0832 7.69288 20.9769 7.43382 20.7878 7.24281C20.5987 7.0518 20.3423 6.94449 20.0748 6.94449ZM7.97484 15.6019C7.97484 15.872 7.8686 16.1311 7.6795 16.3221C7.4904 16.5131 7.23393 16.6204 6.9665 16.6204C6.69908 16.6204 6.4426 16.5131 6.2535 16.3221C6.06441 16.1311 5.95817 15.872 5.95817 15.6019V11.5278C5.95817 11.2577 6.06441 10.9986 6.2535 10.8076C6.4426 10.6166 6.69908 10.5093 6.9665 10.5093C7.23393 10.5093 7.4904 10.6166 7.6795 10.8076C7.8686 10.9986 7.97484 11.2577 7.97484 11.5278V15.6019ZM12.0082 15.6019C12.0082 15.872 11.9019 16.1311 11.7128 16.3221C11.5237 16.5131 11.2673 16.6204 10.9998 16.6204C10.7324 16.6204 10.4759 16.5131 10.2868 16.3221C10.0977 16.1311 9.9915 15.872 9.9915 15.6019V11.5278C9.9915 11.2577 10.0977 10.9986 10.2868 10.8076C10.4759 10.6166 10.7324 10.5093 10.9998 10.5093C11.2673 10.5093 11.5237 10.6166 11.7128 10.8076C11.9019 10.9986 12.0082 11.2577 12.0082 11.5278V15.6019ZM16.0415 15.6019C16.0415 15.872 15.9353 16.1311 15.7462 16.3221C15.5571 16.5131 15.3006 16.6204 15.0332 16.6204C14.7657 16.6204 14.5093 16.5131 14.3202 16.3221C14.1311 16.1311 14.0248 15.872 14.0248 15.6019V11.5278C14.0248 11.2577 14.1311 10.9986 14.3202 10.8076C14.5093 10.6166 14.7657 10.5093 15.0332 10.5093C15.3006 10.5093 15.5571 10.6166 15.7462 10.8076C15.9353 10.9986 16.0415 11.2577 16.0415 11.5278V15.6019Z" fill="white"/>
</svg>
