<svg width="22" height="22" viewBox="0 0 22 22" fill="none" xmlns="http://www.w3.org/2000/svg">
<path d="M19.2499 0H4.58325C3.0671 0 1.83325 1.23385 1.83325 2.75V17.4167C1.83325 19.9439 3.88931 22 6.41656 22H19.2499C19.7568 22 20.1666 21.5902 20.1666 21.0833V4.58335V0.916652C20.1666 0.40975 19.7568 0 19.2499 0ZM18.3333 20.1667H7.33325V5.5H9.1666V10.0833C9.1666 10.4537 9.38935 10.7892 9.7322 10.9303C10.075 11.0724 10.4692 10.9936 10.7313 10.7314L11.9166 9.5462L13.1018 10.7314C13.2769 10.9065 13.5116 11 13.7499 11C13.8682 11 13.9873 10.978 14.101 10.9303C14.4438 10.7892 14.6666 10.4537 14.6666 10.0833V5.5H18.3333V20.1667ZM18.3333 3.66665H13.7499H10.0833H6.4166H4.58325C4.07725 3.66665 3.6666 3.256 3.6666 2.75C3.6666 2.244 4.07725 1.83335 4.58325 1.83335H18.3333V3.66665Z" fill="white"/>
</svg>
