<svg width="22" height="22" viewBox="0 0 22 22" fill="none" xmlns="http://www.w3.org/2000/svg">
<g clip-path="url(#clip0_67_5)">
<path d="M21.0833 6.41663H20.1667C19.6598 6.41663 19.25 6.82728 19.25 7.33328C19.25 7.83928 19.6597 8.24997 20.1666 8.24997H21.0833C21.5902 8.24997 21.9999 7.83932 21.9999 7.33332C21.9999 6.82732 21.5902 6.41663 21.0833 6.41663Z" fill="white"/>
<path d="M2.75 7.3334C2.75 6.8274 2.34025 6.41675 1.83335 6.41675H0.916652C0.40975 6.41671 0 6.8274 0 7.3334C0 7.8394 0.40975 8.25005 0.916652 8.25005H1.8333C2.34025 8.25005 2.75 7.8394 2.75 7.3334Z" fill="white"/>
<path d="M18.7881 3.41377C18.9531 3.41377 19.1199 3.36977 19.2702 3.27627L20.0494 2.79227C20.4802 2.52462 20.6113 1.95992 20.3445 1.52912C20.0778 1.10012 19.5122 0.967215 19.0823 1.23487L18.304 1.71796C17.8732 1.98562 17.7412 2.55121 18.0079 2.98112C18.1822 3.26071 18.4819 3.41377 18.7881 3.41377Z" fill="white"/>
<path d="M2.72927 11.3907L1.95011 11.8747C1.52021 12.1415 1.38821 12.7071 1.65496 13.137C1.82911 13.4166 2.12886 13.5696 2.43506 13.5696C2.59916 13.5696 2.76691 13.5256 2.91721 13.4321L3.69636 12.9481C4.12627 12.6814 4.25827 12.1158 3.99152 11.6859C3.72477 11.256 3.15917 11.1231 2.72927 11.3907Z" fill="white"/>
<path d="M20.0978 11.7774L19.314 11.3017C18.8814 11.0386 18.3176 11.1779 18.0545 11.6106C17.7914 12.0442 17.9308 12.607 18.3625 12.8692L19.1472 13.3449C19.2957 13.4357 19.4598 13.4778 19.6211 13.4778C19.9309 13.4778 20.2334 13.3211 20.4067 13.0369C20.6689 12.6033 20.5304 12.0396 20.0978 11.7774Z" fill="white"/>
<path d="M1.90228 2.88931L2.68603 3.36506C2.83544 3.45491 2.99863 3.49796 3.16088 3.49796C3.47073 3.49796 3.77323 3.34031 3.94553 3.05612C4.20863 2.62252 4.06928 2.05971 3.63753 1.79752L2.85288 1.32181C2.42023 1.05871 1.85648 1.19716 1.59338 1.62981C1.33119 2.06337 1.46963 2.62712 1.90228 2.88931Z" fill="white"/>
<path d="M11.0001 0C6.95669 0 3.66675 3.2899 3.66675 7.33335C3.66675 9.94585 5.0885 12.375 7.3334 13.6767V14.6667H14.6667V13.6767C16.9117 12.375 18.3334 9.94585 18.3334 7.33335C18.3334 3.2899 15.0435 0 11.0001 0ZM11.0001 5.5C9.989 5.5 9.16675 6.32225 9.16675 7.33335C9.16675 7.83935 8.757 8.25 8.2501 8.25C7.74319 8.25 7.33344 7.83935 7.33344 7.33335C7.33344 5.3112 8.97794 3.6667 11.0001 3.6667C11.507 3.6667 11.9167 4.07735 11.9167 4.58335C11.9167 5.08935 11.507 5.5 11.0001 5.5Z" fill="white"/>
<path d="M7.33325 19.25C7.33325 19.756 7.743 20.1667 8.2499 20.1667V21.0833C8.2499 21.5893 8.65965 22 9.16656 22H12.8332C13.3401 22 13.7499 21.5893 13.7499 21.0833V20.1667C14.2568 20.1667 14.6665 19.756 14.6665 19.25V16.5H7.33325V19.25Z" fill="white"/>
</g>
<defs>
<clipPath id="clip0_67_5">
<rect width="22" height="22" fill="white"/>
</clipPath>
</defs>
</svg>
