<svg width="22" height="22" viewBox="0 0 22 22" fill="none" xmlns="http://www.w3.org/2000/svg">
<path d="M10.4998 16.3789C9.81787 16.3789 9.12458 16.4691 8.4436 16.6228C9.02618 19.3283 9.91805 20.9816 10.4998 20.9816C11.0823 20.9816 11.9742 19.3283 12.5559 16.6228C11.8758 16.4691 11.1816 16.3789 10.4998 16.3789Z" fill="white"/>
<path d="M10.5 7.1734C9.70216 7.1734 8.90256 7.08318 8.12577 6.92395C7.99924 7.85186 7.91225 8.85985 7.88062 9.93503H13.1194C13.0878 8.85985 13.0008 7.85091 12.8742 6.92395C12.0975 7.08318 11.2979 7.1734 10.5 7.1734Z" fill="white"/>
<path d="M10.4999 5.33233C11.1906 5.33233 11.8856 5.25039 12.5605 5.1114C11.9788 2.39211 11.0833 0.729614 10.4999 0.729614C9.91646 0.729614 9.02105 2.39302 8.43848 5.11231C9.11332 5.25039 9.80925 5.33233 10.4999 5.33233Z" fill="white"/>
<path d="M16.8735 2.8781L17.2619 2.3902C15.8955 1.19075 14.2357 0.352164 12.4124 0.000488281C13.2304 1.04529 13.8341 2.72807 14.2418 4.61607C15.3349 4.18435 16.2716 3.58508 16.8735 2.8781Z" fill="white"/>
<path d="M14.5615 15.3091C15.9244 15.831 17.1678 16.596 18.1326 17.5515L18.5438 17.9814C19.9225 16.2766 20.8126 14.1308 20.9998 11.7761H14.8779C14.8409 12.9148 14.7346 14.1225 14.5615 15.3091Z" fill="white"/>
<path d="M8.12792 14.8083C8.90997 14.6371 9.70781 14.5377 10.4995 14.5377C11.2921 14.5377 12.09 14.6371 12.872 14.8083C12.9994 13.8749 13.0873 12.8595 13.1198 11.7761H7.88013C7.91267 12.8596 8.00052 13.8758 8.12792 14.8083Z" fill="white"/>
<path d="M6.12188 11.7764H0C0.186298 14.1311 1.0773 16.276 2.45598 17.9808L2.84875 17.5693C3.82411 16.6037 5.07275 15.835 6.43825 15.3103C6.26513 14.1237 6.15792 12.9151 6.12188 11.7764Z" fill="white"/>
<path d="M4.07409 18.8891L3.698 19.2822C5.07227 20.5019 6.74619 21.3552 8.58709 21.7105C7.77867 20.6768 7.17942 19.0171 6.77169 17.1539C5.73656 17.5856 4.79548 18.1748 4.07409 18.8891Z" fill="white"/>
<path d="M6.7573 4.6211C7.16503 2.73125 7.76869 1.04571 8.58675 0C6.77575 0.34982 5.12469 1.17921 3.7627 2.36671L4.17306 2.93927C4.75033 3.61402 5.67386 4.19767 6.7573 4.6211Z" fill="white"/>
<path d="M14.2291 17.152C13.8214 19.0161 13.2221 20.6768 12.4128 21.7106C14.2537 21.3552 15.9276 20.5019 17.3019 19.2831L16.9083 18.8707C16.1956 18.1656 15.2598 17.5819 14.2291 17.152Z" fill="white"/>
<path d="M14.8782 9.93463H21.0001C20.812 7.5633 19.9087 5.40466 18.5134 3.69336L18.205 4.08089C17.3509 5.08336 16.0521 5.89528 14.5671 6.43841C14.7367 7.61305 14.8422 8.80789 14.8782 9.93463Z" fill="white"/>
<path d="M6.43294 6.43969C4.95059 5.89932 3.65799 5.09388 2.81444 4.10427L2.50516 3.67255C1.10012 5.38661 0.188934 7.55353 0 9.935H6.12188C6.15792 8.80826 6.2625 7.61429 6.43294 6.43969Z" fill="white"/>
</svg>
