<svg width="22" height="22" viewBox="0 0 22 22" fill="none" xmlns="http://www.w3.org/2000/svg">
<g clip-path="url(#clip0_7_270)">
<path d="M15.5812 10.9978C12.5464 10.9978 10.0801 13.4641 10.0801 16.4989C10.0801 19.5337 12.5464 22 15.5812 22C18.616 22 21.0823 19.5337 21.0823 16.4989C21.0823 13.4641 18.616 10.9978 15.5812 10.9978ZM18.061 16.2304L16.2258 18.0656C16.0467 18.2446 15.814 18.3341 15.5767 18.3341C15.344 18.3341 15.1067 18.2446 14.9277 18.0656L14.0101 17.148C13.652 16.7899 13.652 16.208 14.0101 15.8499C14.3682 15.4918 14.9501 15.4918 15.3082 15.8499L15.5767 16.1185L16.7629 14.9323C17.121 14.5742 17.7029 14.5742 18.061 14.9323C18.419 15.2949 18.419 15.8723 18.061 16.2304Z" fill="white"/>
<path d="M17.2463 1.8352H14.6636V1.39654C14.6636 0.626653 14.0369 0 13.267 0H6.89307C6.12318 0 5.49652 0.626653 5.49652 1.39654V1.83072H2.91829C1.8127 1.83072 0.91748 2.73042 0.91748 3.83154V19.9947C0.91748 21.1003 1.81718 21.9955 2.91829 21.9955H10.747C9.21616 20.6572 8.24932 18.6922 8.24932 16.4989H4.5834C4.0776 16.4989 3.6658 16.0871 3.6658 15.5813C3.6658 15.0755 4.0776 14.6637 4.5834 14.6637H8.24932C8.32989 14.6637 8.40151 14.6905 8.4776 14.7084C8.64769 14.0415 8.90283 13.4104 9.23854 12.8285H5.49652C4.99073 12.8285 4.57893 12.4167 4.57893 11.9109C4.57893 11.4051 4.99073 10.9933 5.49652 10.9933H10.08C10.2636 10.9933 10.4247 11.0604 10.5679 11.1544C11.8794 9.9235 13.6385 9.15809 15.5812 9.15809C16.9195 9.15809 18.1683 9.52513 19.2471 10.1518V3.83601C19.2471 2.73042 18.3474 1.8352 17.2463 1.8352ZM7.33172 8.24944H5.49652C4.99073 8.24944 4.57893 7.83764 4.57893 7.33184C4.57893 6.82604 4.99073 6.41424 5.49652 6.41424H7.33172C7.83752 6.41424 8.24932 6.82604 8.24932 7.33184C8.24932 7.83764 7.83752 8.24944 7.33172 8.24944ZM7.33172 3.66592V1.83072H12.8328V3.66592H7.33172ZM14.6636 8.24944H10.9976C10.4918 8.24944 10.08 7.83764 10.08 7.33184C10.08 6.82604 10.4918 6.41424 10.9976 6.41424H14.6636C15.1694 6.41424 15.5812 6.82604 15.5812 7.33184C15.5812 7.83764 15.1694 8.24944 14.6636 8.24944Z" fill="white"/>
</g>
<defs>
<clipPath id="clip0_7_270">
<rect width="22" height="22" fill="white"/>
</clipPath>
</defs>
</svg>
