<svg width="22" height="22" viewBox="0 0 22 22" fill="none" xmlns="http://www.w3.org/2000/svg">
<g clip-path="url(#clip0_67_17)">
<path d="M16.7098 13.4513C16.2185 13.3321 15.7235 13.6392 15.6071 14.1314C15.4897 14.6237 15.795 15.1178 16.2872 15.2342C19.1343 15.9097 20.1665 16.9089 20.1665 17.4167C20.1665 18.5121 16.5109 20.1667 11 20.1667C5.49004 20.1667 1.83356 18.5121 1.83356 17.4167C1.83356 16.9089 2.86663 15.9097 5.71188 15.2342C6.20503 15.1178 6.50937 14.6237 6.39202 14.1314C6.27562 13.6392 5.78063 13.3321 5.28929 13.4513C1.87846 14.2598 0.000244141 15.6678 0.000244141 17.4167C0.000244141 20.4252 5.53498 22 11 22C16.466 22 21.9998 20.4252 21.9998 17.4167C21.9998 15.6678 20.1216 14.2598 16.7098 13.4513Z" fill="white"/>
<path d="M11.0004 7.33376C11.5064 7.33376 11.917 6.92311 11.917 6.41712C11.917 5.91113 11.5064 5.50049 11.0004 5.50049C10.4944 5.50049 10.0837 5.91113 10.0837 6.41712C10.0837 6.92311 10.4944 7.33376 11.0004 7.33376Z" fill="white"/>
<path d="M9.8071 17.0805L10.1802 17.8266C10.336 18.1374 10.6532 18.3335 11.0006 18.3335C11.348 18.3335 11.6652 18.1374 11.821 17.8266L12.6111 16.2463C13.5727 14.3223 14.7588 12.4587 15.9055 10.6566L16.428 9.83435C17.0752 8.81137 17.4171 7.62979 17.4171 6.41707C17.4171 4.5911 16.6352 2.84579 15.2721 1.62851C13.91 0.412129 12.0777 -0.170817 10.2508 0.0436788C7.39814 0.368172 5.04239 2.66528 4.6473 5.50507C4.41355 7.18804 4.83429 8.8591 5.83067 10.2121C7.38534 12.3185 8.59897 14.6624 9.8071 17.0805ZM11.0006 3.66716C12.5167 3.66716 13.7505 4.90099 13.7505 6.41711C13.7505 7.93323 12.5167 9.16706 11.0006 9.16706C9.48445 9.16706 8.25063 7.93323 8.25063 6.41711C8.25063 4.90099 9.48445 3.66716 11.0006 3.66716Z" fill="white"/>
</g>
<defs>
<clipPath id="clip0_67_17">
<rect width="22" height="22" fill="white"/>
</clipPath>
</defs>
</svg>
