<svg width="22" height="22" viewBox="0 0 22 22" fill="none" xmlns="http://www.w3.org/2000/svg">
<path d="M20.4428 0.297357C20.1133 0.0358496 19.6848 -0.0597988 19.2763 0.0368808L7.60732 2.7868C6.98613 2.9328 6.56568 3.48706 6.56568 4.12519V13.9898C6.09302 13.8373 5.65611 13.7501 5.17323 13.7501C2.89507 13.7501 1.03955 15.5969 1.03955 17.875C1.03955 20.1532 2.87797 22 5.15613 22C7.43429 22 9.27271 20.1532 9.27271 17.875V10.0266L18.2102 7.92367V12.6148C17.7805 12.4623 17.3221 12.3751 16.8392 12.3751C14.561 12.3751 12.7162 14.2219 12.7162 16.5C12.7162 18.7782 14.5601 20.625 16.8382 20.625C19.1164 20.625 20.9602 18.7782 20.9602 16.5V1.37523C20.9602 0.955295 20.7721 0.558178 20.4428 0.297357ZM9.27271 7.20162V5.21419L18.2102 3.11142V5.09869L9.27271 7.20162Z" fill="white"/>
</svg>
