<svg width="22" height="22" viewBox="0 0 22 22" fill="none" xmlns="http://www.w3.org/2000/svg">
<path d="M10.9999 8.25C8.97775 8.25 7.33325 9.8945 7.33325 11.9167C7.33325 13.9388 8.97775 15.5833 10.9999 15.5833C13.0221 15.5833 14.6666 13.9388 14.6666 11.9167C14.6666 9.8945 13.0221 8.25 10.9999 8.25Z" fill="white"/>
<path d="M19.3151 5.50003H18.3233C18.2105 5.50003 18.1133 5.42393 18.0849 5.31487L17.6092 3.40637C17.3763 2.48053 16.5477 1.83337 15.5934 1.83337H6.4066C5.45235 1.83337 4.6237 2.48053 4.38995 3.40728L3.9151 5.31393C3.8867 5.42393 3.7895 5.50003 3.67675 5.50003H2.6849C1.2036 5.50003 0 6.70362 0 8.18403V17.4827C0 18.9631 1.2036 20.1667 2.6849 20.1667H19.3151C20.7964 20.1667 22 18.9631 22 17.4827V8.18403C22 6.70362 20.7964 5.50003 19.3151 5.50003ZM11 17.4167C7.96675 17.4167 5.5 14.9499 5.5 11.9167C5.5 8.88343 7.96675 6.41668 11 6.41668C14.0333 6.41668 16.5 8.88343 16.5 11.9167C16.5 14.9499 14.0333 17.4167 11 17.4167ZM18.3333 10.0834C17.8273 10.0834 17.4167 9.67272 17.4167 9.16672C17.4167 8.66072 17.8273 8.25003 18.3333 8.25003C18.8393 8.25003 19.25 8.66068 19.25 9.16668C19.25 9.67268 18.8393 10.0834 18.3333 10.0834Z" fill="white"/>
</svg>
