<svg width="22" height="22" viewBox="0 0 22 22" fill="none" xmlns="http://www.w3.org/2000/svg">
<path d="M16.4083 15.2352L20.7558 10.8869C20.9548 10.6896 21.0389 10.4048 20.9831 10.1301C20.9265 9.8562 20.7359 9.62809 20.4753 9.52487C17.5256 8.3485 15.2919 8.60326 14.3453 8.80724L9.09285 4.33817C9.19693 2.56987 8.24616 1.36521 8.20203 1.31026C8.05467 1.12626 7.83488 1.01386 7.59843 1.00056C7.36447 0.992245 7.13137 1.07716 6.96485 1.24364L1.24374 6.96483C1.07559 7.13217 0.987311 7.36445 1.00148 7.60172C1.01478 7.83817 1.12885 8.05878 1.31536 8.20532C2.33769 9.01786 3.61565 9.10364 4.29418 9.08615L8.80317 14.3861C8.63914 15.3335 8.42771 17.6571 9.54328 20.4586C9.6465 20.7191 9.87378 20.9089 10.1477 20.9664C10.2043 20.9772 10.2601 20.9831 10.3159 20.9831C10.5348 20.9831 10.7471 20.8973 10.9045 20.7391L15.2311 16.4124L19.557 20.7391C19.7193 20.9015 19.9324 20.9831 20.1456 20.9831C20.3587 20.9831 20.5719 20.9015 20.7342 20.7391C21.0597 20.4136 21.0597 19.8874 20.7342 19.5619L16.4083 15.2352Z" fill="white"/>
</svg>
