<svg width="22" height="22" viewBox="0 0 22 22" fill="none" xmlns="http://www.w3.org/2000/svg">
<g clip-path="url(#clip0_72_73)">
<path d="M11 8.25C9.48385 8.25 8.25 9.48385 8.25 11C8.25 12.5162 9.48385 13.75 11 13.75C12.5162 13.75 13.75 12.5162 13.75 11C13.75 9.48385 12.5162 8.25 11 8.25Z" fill="white"/>
<path d="M21.2566 9.13L20.0429 8.89625C19.4993 8.79265 19.0731 8.437 18.8705 7.92365C18.6679 7.40755 18.7394 6.85665 19.0676 6.41025L19.8294 5.37075C20.097 5.00685 20.0576 4.50085 19.7377 4.18185L18.0923 2.53645C17.7825 2.2257 17.293 2.17985 16.9309 2.42554L15.907 3.11764C15.4505 3.42839 14.8987 3.47879 14.3899 3.25879C13.883 3.03695 13.5429 2.59695 13.4595 2.0497L13.2634 0.777348C13.1945 0.33 12.8095 0 12.3567 0H10.0302C9.59105 0 9.2134 0.311652 9.13 0.743402L8.8284 2.3109C8.72665 2.84165 8.382 3.26515 7.8824 3.4714C7.38281 3.6795 6.8383 3.62355 6.391 3.32015L5.06915 2.4255C4.70705 2.17985 4.2194 2.22565 3.90775 2.5364L2.26235 4.18185C1.94245 4.50085 1.903 5.00685 2.1707 5.37075L2.93245 6.41115C3.2606 6.85665 3.3321 7.40755 3.12954 7.92365C2.92695 8.437 2.5007 8.79265 1.9562 8.89625L0.743445 9.13C0.311652 9.2134 0 9.5911 0 10.0302V12.3567C0 12.8095 0.33 13.1945 0.777348 13.2632L2.0497 13.4594C2.59695 13.5428 3.03695 13.8829 3.25879 14.3898C3.4797 14.8967 3.42839 15.4495 3.11764 15.9078L2.42554 16.9308C2.17895 17.2938 2.2257 17.7815 2.53645 18.0922L4.18185 19.7376C4.50175 20.0585 5.00685 20.0951 5.37075 19.8293L6.41115 19.0675C6.85665 18.7403 7.40665 18.6697 7.92365 18.8704C8.437 19.073 8.79265 19.4993 8.89625 20.0438L9.13 21.2565C9.2134 21.6883 9.5911 22 10.0302 22H12.3567C12.8095 22 13.1945 21.67 13.2632 21.2227L13.4008 20.328C13.4869 19.7679 13.8362 19.3233 14.3587 19.1079C14.8775 18.8916 15.4413 18.9585 15.8987 19.294L16.6292 19.8293C16.9913 20.0952 17.4983 20.0585 17.8182 19.7377L19.4636 18.0923C19.7743 17.7815 19.8211 17.2939 19.5745 16.9309L18.8824 15.907C18.5716 15.4496 18.5203 14.8968 18.7412 14.3899C18.9631 13.883 19.4031 13.5429 19.9503 13.4595L21.2227 13.2633C21.67 13.1946 22 12.8096 22 12.3567V10.0302C22 9.5911 21.6883 9.2134 21.2566 9.13ZM11 15.5833C8.47275 15.5833 6.41665 13.5273 6.41665 11C6.41665 8.47275 8.47275 6.41665 11 6.41665C13.5273 6.41665 15.5833 8.47275 15.5833 11C15.5833 13.5273 13.5273 15.5833 11 15.5833Z" fill="white"/>
</g>
<defs>
<clipPath id="clip0_72_73">
<rect width="22" height="22" fill="white"/>
</clipPath>
</defs>
</svg>
