<svg width="22" height="22" viewBox="0 0 22 22" fill="none" xmlns="http://www.w3.org/2000/svg">
<path d="M20.1667 4.33333H18.5H15.8167L15.5425 3.23665C15.2142 1.92 14.0358 1 12.6783 1H9.32166C7.96415 1 6.78583 1.92 6.45747 3.23669L6.18329 4.33337H3.50001H1.83332C1.3725 4.33333 1 4.70669 1 5.1667C1 5.6267 1.3725 6.00002 1.83332 6.00002H2.71164L3.41333 18.6384C3.4875 19.9626 4.58501 21.0001 5.91083 21.0001H16.0892C17.415 21.0001 18.5125 19.9626 18.5867 18.6384L19.2884 6.00002H20.1667C20.6275 6.00002 21 5.6267 21 5.1667C21 4.70669 20.6275 4.33333 20.1667 4.33333ZM8.07333 3.64083C8.21751 3.06751 8.73002 2.66665 9.32166 2.66665H12.6783C13.27 2.66665 13.7825 3.06747 13.9267 3.64083L14.0992 4.33333H7.90083L8.07333 3.64083ZM8.50002 16.8334C8.50002 17.2934 8.12751 17.6667 7.66669 17.6667C7.20587 17.6667 6.83337 17.2934 6.83337 16.8334V8.50003C6.83337 8.04003 7.20587 7.66671 7.66669 7.66671C8.12751 7.66671 8.50002 8.04003 8.50002 8.50003V16.8334ZM11.8333 16.8334C11.8333 17.2934 11.4608 17.6667 11 17.6667C10.5392 17.6667 10.1667 17.2934 10.1667 16.8334V8.50003C10.1667 8.04003 10.5392 7.66671 11 7.66671C11.4608 7.66671 11.8333 8.04003 11.8333 8.50003V16.8334ZM15.1667 16.8334C15.1667 17.2934 14.7942 17.6667 14.3334 17.6667C13.8726 17.6667 13.5001 17.2934 13.5001 16.8334V8.50003C13.5001 8.04003 13.8726 7.66671 14.3334 7.66671C14.7942 7.66671 15.1667 8.04003 15.1667 8.50003V16.8334Z" fill="white"/>
</svg>
