<svg width="22" height="22" viewBox="0 0 22 22" fill="none" xmlns="http://www.w3.org/2000/svg">
<path d="M15.5833 4.1204C15.5833 2.607 14.3513 1.375 12.8379 1.375H9.1621C7.6487 1.375 6.4167 2.607 6.4167 4.1204V5.04165H5.5V20.625H16.5V5.04165H15.5833V4.1204ZM13.75 5.04165H8.25V4.1204C8.25 3.61715 8.65885 3.2083 9.1621 3.2083H12.8379C13.3412 3.2083 13.75 3.61715 13.75 4.1204V5.04165H13.75Z" fill="white"/>
<path d="M0 7.79251V17.874C0 19.3902 1.23475 20.6249 2.7509 20.6249H3.66665V5.04156H2.7509C1.23475 5.04156 0 6.27631 0 7.79251Z" fill="white"/>
<path d="M19.249 5.04156H18.3333V20.6249H19.249C20.7652 20.6249 21.9999 19.3902 21.9999 17.874V7.79251C21.9999 6.27631 20.7652 5.04156 19.249 5.04156Z" fill="white"/>
</svg>
