<svg width="100" height="100" viewBox="0 0 100 100" fill="none" xmlns="http://www.w3.org/2000/svg">
<g clip-path="url(#clip0_75_2)">
<path fill-rule="evenodd" clip-rule="evenodd" d="M50 100C77.6144 100 100 77.6144 100 50C100 22.3857 77.6144 0 50 0C22.3857 0 0 22.3857 0 50C0 77.6144 22.3857 100 50 100ZM73.1694 41.9194C75.61 39.4786 75.61 35.5214 73.1694 33.0806C70.7287 30.6398 66.7713 30.6398 64.3306 33.0806L43.75 53.6612L35.6694 45.5806C33.2286 43.1398 29.2714 43.1398 26.8306 45.5806C24.3898 48.0214 24.3898 51.9786 26.8306 54.4194L39.3306 66.9194C41.7714 69.36 45.7286 69.36 48.1694 66.9194L73.1694 41.9194Z" fill="#52BF5E"/>
</g>
<defs>
<clipPath id="clip0_75_2">
<rect width="100" height="100" fill="white"/>
</clipPath>
</defs>
</svg>
