<svg width="30" height="30" viewBox="0 0 30 30" fill="none" xmlns="http://www.w3.org/2000/svg">
<g clip-path="url(#clip0_78_12)">
<ellipse cx="15" cy="14.5" rx="11" ry="10.5" fill="white"/>
<mask id="mask0_78_12" style="mask-type:luminance" maskUnits="userSpaceOnUse" x="0" y="0" width="30" height="30">
<path d="M30 0H0V30H30V0Z" fill="white"/>
</mask>
<g mask="url(#mask0_78_12)">
<path d="M0.46875 15C0.46875 6.97266 6.97266 0.46875 15 0.46875C23.0273 0.46875 29.5312 6.97266 29.5312 15C29.5312 23.0273 23.0273 29.5312 15 29.5312C6.97266 29.5312 0.46875 23.0273 0.46875 15ZM17.5781 21.7969V15H21.7324C22.3594 15 22.6758 14.2383 22.2305 13.7988L15.498 7.10156C15.2227 6.82617 14.7832 6.82617 14.5078 7.10156L7.76953 13.7988C7.32422 14.2441 7.64063 15 8.26758 15H12.4219V21.7969C12.4219 22.1836 12.7383 22.5 13.125 22.5H16.875C17.2617 22.5 17.5781 22.1836 17.5781 21.7969Z" fill="#595860"/>
</g>
</g>
<defs>
<clipPath id="clip0_78_12">
<rect width="30" height="30" fill="white"/>
</clipPath>
</defs>
</svg>
