<svg width="5" height="20" viewBox="0 0 5 20" fill="fff" xmlns="http://www.w3.org/2000/svg">
<path d="M0.840909 1.85795C0.840909 1.36742 1.01657 0.946496 1.3679 0.595171C1.71922 0.243845 2.14015 0.0681819 2.63068 0.0681819C3.12121 0.0681819 3.54214 0.243845 3.89347 0.595171C4.24479 0.946496 4.42045 1.36742 4.42045 1.85795C4.42045 2.34848 4.24479 2.76941 3.89347 3.12074C3.54214 3.47206 3.12121 3.64773 2.63068 3.64773C2.30587 3.64773 2.00758 3.56487 1.7358 3.39915C1.46402 3.24006 1.24527 3.02462 1.07955 2.75284C0.920455 2.48769 0.840909 2.18939 0.840909 1.85795ZM0.840909 9.56889C0.840909 9.07836 1.01657 8.65743 1.3679 8.30611C1.71922 7.95478 2.14015 7.77912 2.63068 7.77912C3.12121 7.77912 3.54214 7.95478 3.89347 8.30611C4.24479 8.65743 4.42045 9.07836 4.42045 9.56889C4.42045 10.0594 4.24479 10.4804 3.89347 10.8317C3.54214 11.183 3.12121 11.3587 2.63068 11.3587C2.30587 11.3587 2.00758 11.2758 1.7358 11.1101C1.46402 10.951 1.24527 10.7356 1.07955 10.4638C0.920455 10.1986 0.840909 9.90033 0.840909 9.56889ZM0.840909 17.2798C0.840909 16.7893 1.01657 16.3684 1.3679 16.017C1.71922 15.6657 2.14015 15.4901 2.63068 15.4901C3.12121 15.4901 3.54214 15.6657 3.89347 16.017C4.24479 16.3684 4.42045 16.7893 4.42045 17.2798C4.42045 17.7704 4.24479 18.1913 3.89347 18.5426C3.54214 18.8939 3.12121 19.0696 2.63068 19.0696C2.30587 19.0696 2.00758 18.9867 1.7358 18.821C1.46402 18.6619 1.24527 18.4465 1.07955 18.1747C0.920455 17.9096 0.840909 17.6113 0.840909 17.2798Z" fill="currentColor"/>
</svg>
