<svg width="64" height="64" viewBox="0 0 64 64" fill="none" xmlns="http://www.w3.org/2000/svg">
<path d="M57.3965 0.253906C60.9031 0.253906 63.7461 3.09695 63.7461 6.60352V57.3965C63.7461 60.9031 60.9031 63.7461 57.3965 63.7461H6.60352C3.09695 63.7461 0.253906 60.9031 0.253906 57.3965V6.60352C0.253906 3.09695 3.09695 0.253906 6.60352 0.253906H57.3965ZM14.54 39.9365C13.5983 39.9365 12.6776 40.2161 11.8945 40.7393C11.1115 41.2625 10.5011 42.006 10.1406 42.876C9.78027 43.7459 9.68553 44.7034 9.86914 45.627C10.0529 46.5507 10.5069 47.3995 11.1729 48.0654C11.8387 48.7313 12.6868 49.1854 13.6104 49.3691C14.5341 49.5529 15.4922 49.4581 16.3623 49.0977C17.2323 48.7372 17.9758 48.1268 18.499 47.3438C19.0222 46.5607 19.3018 45.64 19.3018 44.6982C19.3017 43.4354 18.8002 42.224 17.9072 41.3311C17.0143 40.4381 15.8029 39.9366 14.54 39.9365ZM28.8252 41.5234C27.9833 41.5235 27.1763 41.8588 26.5811 42.4541C25.9858 43.0494 25.6504 43.8564 25.6504 44.6982C25.6504 45.5402 25.9857 46.348 26.5811 46.9434C27.1763 47.5385 27.9835 47.873 28.8252 47.873H51.0479C51.8896 47.873 52.6967 47.5385 53.292 46.9434C53.8873 46.348 54.2227 45.5402 54.2227 44.6982C54.2226 43.8563 53.8873 43.0494 53.292 42.4541C52.6967 41.8588 51.8897 41.5235 51.0479 41.5234H28.8252ZM14.54 27.2383C13.5983 27.2383 12.6776 27.5178 11.8945 28.041C11.1115 28.5642 10.501 29.3076 10.1406 30.1777C9.78025 31.0478 9.68549 32.0051 9.86914 32.9287C10.0529 33.8524 10.5069 34.7012 11.1729 35.3672C11.8387 36.033 12.6868 36.4871 13.6104 36.6709C14.5341 36.8546 15.4922 36.7598 16.3623 36.3994C17.2323 36.039 17.9758 35.4285 18.499 34.6455C19.0223 33.8624 19.3018 32.9418 19.3018 32C19.3018 30.7371 18.8002 29.5258 17.9072 28.6328C17.0143 27.7399 15.8029 27.2384 14.54 27.2383ZM28.8252 28.8252C27.9835 28.8253 27.1763 29.1598 26.5811 29.7549C25.9857 30.3502 25.6504 31.158 25.6504 32C25.6504 32.842 25.9857 33.6498 26.5811 34.2451C27.1763 34.8402 27.9835 35.1747 28.8252 35.1748H51.0479C51.8896 35.1748 52.6967 34.8402 53.292 34.2451C53.8873 33.6498 54.2227 32.842 54.2227 32C54.2227 31.158 53.8873 30.3502 53.292 29.7549C52.6967 29.1598 51.8896 28.8252 51.0479 28.8252H28.8252ZM14.54 14.54C13.5984 14.54 12.6775 14.8187 11.8945 15.3418C11.1114 15.865 10.501 16.6094 10.1406 17.4795C9.78025 18.3496 9.68545 19.3068 9.86914 20.2305C10.0529 21.1542 10.5069 22.003 11.1729 22.6689C11.8387 23.3347 12.6869 23.7879 13.6104 23.9717C14.5341 24.1554 15.4922 24.0616 16.3623 23.7012C17.2323 23.3408 17.9758 22.7303 18.499 21.9473C19.0222 21.1642 19.3017 20.2435 19.3018 19.3018C19.3018 18.0389 18.8001 16.8276 17.9072 15.9346C17.0143 15.0416 15.8029 14.5401 14.54 14.54ZM28.8252 16.127C27.9835 16.127 27.1763 16.4615 26.5811 17.0566C25.9857 17.652 25.6504 18.4598 25.6504 19.3018C25.6504 20.1436 25.9858 20.9506 26.5811 21.5459C27.1763 22.1412 27.9833 22.4765 28.8252 22.4766H51.0479C51.8897 22.4765 52.6967 22.1412 53.292 21.5459C53.8873 20.9506 54.2226 20.1437 54.2227 19.3018C54.2227 18.4598 53.8873 17.652 53.292 17.0566C52.6967 16.4615 51.8896 16.127 51.0479 16.127H28.8252Z" fill="#A3A2A8"/>
</svg>
