<svg width="100" height="100" viewBox="0 0 100 100" fill="none" xmlns="http://www.w3.org/2000/svg">
<g clip-path="url(#clip0_78_2)">
<circle cx="50" cy="50" r="50" fill="#1F6FEB"/>
<circle cx="50" cy="50" r="40" fill="white"/>
<path d="M53 4C28.1472 4 8 24.1472 8 49C8 73.8528 28.1472 94 53 94C77.8528 94 98 73.8528 98 49C98 24.1472 77.8528 4 53 4ZM68.1396 18.0568C69.4588 18.0672 70.7396 18.5538 71.7072 19.5215L79.1959 27.0072C81.2659 29.0773 81.124 32.565 78.8851 34.8093C76.6408 37.0536 73.1475 37.1871 71.0832 35.1228L63.5974 27.637C61.5273 25.5726 61.672 22.0737 63.9109 19.835C65.1003 18.6426 66.6446 18.045 68.1396 18.0568ZM55.8011 27.9476L70.7755 42.9191L46.4404 67.2484L31.466 52.2741L55.8011 27.9476ZM27.5792 55.1094L43.3742 70.9045L23.6241 74.8596L27.5792 55.1094Z" fill="#1F6FEB"/>
</g>
<defs>
<clipPath id="clip0_78_2">
<rect width="100" height="100" fill="white"/>
</clipPath>
</defs>
</svg>
