<svg width="30" height="30" viewBox="0 0 30 30" fill="none" xmlns="http://www.w3.org/2000/svg">
<g clip-path="url(#clip0_49_2)">
<path d="M14.9995 0C6.7156 0 0 6.7161 0 14.9997C0 23.2833 6.7156 30 14.9995 30C23.2834 30 29.9998 23.2837 29.9998 14.9997C29.9998 6.7157 23.2834 0 14.9995 0ZM22.1301 10.7945L20.7054 12.2192L17.8053 9.3193L16.7051 10.4195L19.6052 13.3196L12.492 20.4322L9.5921 17.5326L8.4919 18.6328L11.3918 21.5327L10.683 22.2415L10.6695 22.228C10.5909 22.3574 10.4631 22.4518 10.3113 22.4855L7.607 23.0885C7.5665 23.0976 7.5253 23.102 7.4846 23.102C7.337 23.102 7.1936 23.0439 7.0873 22.9373C6.9509 22.8014 6.8941 22.6051 6.9361 22.417L7.5388 19.7135C7.5728 19.5618 7.6674 19.4337 7.7966 19.3553L7.7829 19.3416L19.2299 7.8941C19.3977 7.7266 19.6703 7.7266 19.8381 7.8946L22.1303 10.1863C22.2981 10.3541 22.2981 10.6267 22.1301 10.7945Z" fill="#3F5EDA"/>
</g>
<defs>
<clipPath id="clip0_49_2">
<rect width="30" height="30" fill="white"/>
</clipPath>
</defs>
</svg>
